<?xml version="1.0" encoding="UTF-8"?>
<svg id="Camada_2" data-name="Camada 2" xmlns="http://www.w3.org/2000/svg" viewBox="0 0 500 500">
  <defs>
    <style>
      .cls-1 {
        fill: #fff;
      }
    </style>
  </defs>
  <g id="Camada_1-2" data-name="Camada 1">
    <g>
      <path class="cls-1" d="M382.37,89.28c-16.19,0-29.31,13.12-29.31,29.31s13.12,29.31,29.31,29.31,29.31-13.12,29.31-29.31-13.12-29.31-29.31-29.31Z"/>
      <path class="cls-1" d="M252.05,126.87c-67.9,0-123.14,55.24-123.14,123.13s55.24,123.13,123.14,123.13,123.13-55.24,123.13-123.13-55.24-123.13-123.13-123.13Zm0,202.01c-43.5,0-78.88-35.38-78.88-78.88s35.38-78.87,78.88-78.87,78.87,35.38,78.87,78.87-35.38,78.88-78.87,78.88Z"/>
      <path class="cls-1" d="M349.81,500H150.18C67.37,500,0,432.63,0,349.82V150.18C0,67.37,67.37,0,150.18,0h199.62c82.81,0,150.19,67.37,150.19,150.18v199.63c0,82.81-67.38,150.18-150.19,150.18ZM150.18,47.04c-56.88,0-103.15,46.27-103.15,103.14v199.63c0,56.88,46.27,103.15,103.15,103.15h199.62c56.88,0,103.15-46.27,103.15-103.15V150.18c0-56.88-46.27-103.14-103.15-103.14H150.18Z"/>
    </g>
  </g>
</svg>