<?xml version="1.0" encoding="UTF-8"?>
<svg id="Camada_2" data-name="Camada 2" xmlns="http://www.w3.org/2000/svg" viewBox="0 0 498.78 500">
  <defs>
    <style>
      .cls-1, .cls-2 {
        fill: #fff;
      }

      .cls-2 {
        fill-rule: evenodd;
      }
    </style>
  </defs>
  <g id="Camada_1-2" data-name="Camada 1">
    <g>
      <path class="cls-1" d="M0,500l35.85-133.75c-20.3-36.62-30.98-77.65-30.98-119.3C4.87,110.79,115.65,0,251.82,0s246.96,110.79,246.96,246.95-110.78,246.96-246.96,246.96c-40.88,0-81.25-10.32-117.38-29.92L0,500Zm141.12-86.14l8.46,5.05c31.08,18.52,66.44,28.31,102.24,28.31,110.43,0,200.28-89.84,200.28-200.28S362.25,46.68,251.82,46.68,51.55,136.52,51.55,246.95c0,36.47,10.13,72.37,29.29,103.84l5.19,8.53-20.01,74.67,75.1-20.12Z"/>
      <path class="cls-2" d="M343.69,281.3c-10.16-6.08-23.39-12.87-35.36-7.97-9.19,3.76-15.05,18.14-21,25.48-3.06,3.77-6.7,4.36-11.39,2.47-34.49-13.73-60.91-36.76-79.94-68.48-3.22-4.93-2.65-8.81,1.24-13.39,5.75-6.77,12.97-14.45,14.52-23.58,1.55-9.12-2.72-19.78-6.49-27.9-4.82-10.38-10.2-25.18-20.6-31.05-9.56-5.4-22.15-2.38-30.66,4.56-14.7,11.97-21.79,30.72-21.57,49.31,.06,5.28,.71,10.55,1.94,15.65,2.97,12.26,8.63,23.71,15.01,34.59,4.81,8.21,10.03,16.17,15.67,23.83,18.45,25.06,41.39,46.83,67.96,63.1,13.28,8.13,27.58,15.26,42.38,20.15,16.6,5.49,31.4,11.2,49.33,7.79,18.78-3.56,37.28-15.18,44.74-33.28,2.2-5.36,3.31-11.32,2.07-16.98-2.55-11.7-18.39-18.65-27.85-24.31Z"/>
    </g>
  </g>
</svg>